<svg xmlns="http://www.w3.org/2000/svg" viewBox="0 0 2300 3000" role="img" aria-labelledby="title desc">
  <title id="title">ClosetCue planning screenshot placeholder</title>
  <desc id="desc">Placeholder iPad screenshot for the ClosetCue styling brief.</desc>
  <defs>
    <linearGradient id="screen" x1="0" y1="0" x2="1" y2="1">
      <stop offset="0" stop-color="#fffaf4"/>
      <stop offset="1" stop-color="#eef6f3"/>
    </linearGradient>
  </defs>
  <rect width="2300" height="3000" rx="190" fill="#17120d"/>
  <rect x="86" y="90" width="2128" height="2820" rx="132" fill="url(#screen)"/>
  <rect x="940" y="132" width="420" height="48" rx="24" fill="#17120d"/>
  <text x="1150" y="380" text-anchor="middle" font-family="Inter, Arial, sans-serif" font-size="132" font-weight="700" fill="#1c1813">Styling Brief</text>
  <text x="1150" y="492" text-anchor="middle" font-family="Inter, Arial, sans-serif" font-size="58" fill="#8a8276">screenshot placeholder</text>
  <rect x="250" y="690" width="1800" height="190" rx="62" fill="#f37100" opacity="0.18"/>
  <rect x="250" y="990" width="830" height="250" rx="62" fill="#2f6f64" opacity="0.15"/>
  <rect x="1220" y="990" width="830" height="250" rx="62" fill="#1c1813" opacity="0.08"/>
  <rect x="250" y="1380" width="520" height="640" rx="82" fill="#f37100" opacity="0.18"/>
  <rect x="890" y="1380" width="520" height="640" rx="82" fill="#2f6f64" opacity="0.18"/>
  <rect x="1530" y="1380" width="520" height="640" rx="82" fill="#f37100" opacity="0.14"/>
  <rect x="330" y="2240" width="1640" height="72" rx="36" fill="#1c1813" opacity="0.13"/>
  <rect x="500" y="2390" width="1300" height="72" rx="36" fill="#1c1813" opacity="0.08"/>
</svg>
