<svg xmlns="http://www.w3.org/2000/svg" viewBox="0 0 3749 1893" role="img" aria-labelledby="title desc">
  <title id="title">ClosetCue stacked screenshot placeholder</title>
  <desc id="desc">Placeholder stacked iPhone screens for ClosetCue.</desc>
  <defs>
    <linearGradient id="screen" x1="0" y1="0" x2="1" y2="1">
      <stop offset="0" stop-color="#fffaf4"/>
      <stop offset="1" stop-color="#eef6f3"/>
    </linearGradient>
    <filter id="shadow" x="-10%" y="-10%" width="120%" height="130%">
      <feDropShadow dx="0" dy="42" stdDeviation="48" flood-color="#1c1813" flood-opacity="0.22"/>
    </filter>
  </defs>
  <rect width="3749" height="1893" fill="none"/>
  <g filter="url(#shadow)" transform="translate(320 120) rotate(-7 480 820)">
    <rect x="0" y="0" width="760" height="1560" rx="116" fill="#17120d"/>
    <rect x="42" y="58" width="676" height="1444" rx="82" fill="url(#screen)"/>
    <rect x="262" y="86" width="236" height="30" rx="15" fill="#17120d"/>
    <text x="380" y="230" text-anchor="middle" font-family="Inter, Arial, sans-serif" font-size="72" font-weight="700" fill="#1c1813">Closet</text>
    <rect x="118" y="324" width="520" height="132" rx="36" fill="#f37100" opacity="0.18"/>
    <rect x="118" y="504" width="220" height="260" rx="42" fill="#2f6f64" opacity="0.18"/>
    <rect x="380" y="504" width="220" height="260" rx="42" fill="#f37100" opacity="0.22"/>
    <rect x="118" y="820" width="482" height="34" rx="17" fill="#1c1813" opacity="0.18"/>
    <rect x="118" y="894" width="390" height="34" rx="17" fill="#1c1813" opacity="0.12"/>
    <text x="380" y="1250" text-anchor="middle" font-family="Inter, Arial, sans-serif" font-size="42" fill="#8a8276">screenshot placeholder</text>
  </g>
  <g filter="url(#shadow)" transform="translate(1490 70)">
    <rect x="0" y="0" width="820" height="1680" rx="126" fill="#17120d"/>
    <rect x="46" y="62" width="728" height="1556" rx="88" fill="url(#screen)"/>
    <rect x="284" y="92" width="252" height="32" rx="16" fill="#17120d"/>
    <text x="410" y="250" text-anchor="middle" font-family="Inter, Arial, sans-serif" font-size="78" font-weight="700" fill="#1c1813">Plan</text>
    <rect x="140" y="344" width="540" height="108" rx="36" fill="#f37100" opacity="0.20"/>
    <rect x="140" y="510" width="540" height="92" rx="30" fill="#2f6f64" opacity="0.16"/>
    <rect x="140" y="666" width="540" height="92" rx="30" fill="#1c1813" opacity="0.09"/>
    <rect x="140" y="856" width="250" height="310" rx="46" fill="#f37100" opacity="0.18"/>
    <rect x="430" y="856" width="250" height="310" rx="46" fill="#2f6f64" opacity="0.18"/>
    <text x="410" y="1360" text-anchor="middle" font-family="Inter, Arial, sans-serif" font-size="44" fill="#8a8276">screenshot placeholder</text>
  </g>
  <g filter="url(#shadow)" transform="translate(2600 145) rotate(7 430 780)">
    <rect x="0" y="0" width="760" height="1560" rx="116" fill="#17120d"/>
    <rect x="42" y="58" width="676" height="1444" rx="82" fill="url(#screen)"/>
    <rect x="262" y="86" width="236" height="30" rx="15" fill="#17120d"/>
    <text x="380" y="230" text-anchor="middle" font-family="Inter, Arial, sans-serif" font-size="72" font-weight="700" fill="#1c1813">Outfits</text>
    <rect x="118" y="330" width="520" height="350" rx="54" fill="#2f6f64" opacity="0.18"/>
    <rect x="150" y="742" width="456" height="34" rx="17" fill="#1c1813" opacity="0.18"/>
    <rect x="150" y="810" width="366" height="34" rx="17" fill="#1c1813" opacity="0.12"/>
    <rect x="118" y="930" width="520" height="152" rx="42" fill="#f37100" opacity="0.20"/>
    <text x="380" y="1250" text-anchor="middle" font-family="Inter, Arial, sans-serif" font-size="42" fill="#8a8276">screenshot placeholder</text>
  </g>
</svg>
